<?xml version="1.0" ?><svg enable-background="new 0 0 52 52" id="Layer_1" version="1.1" viewBox="0 0 52 52" xml:space="preserve" xmlns="http://www.w3.org/2000/svg" xmlns:xlink="http://www.w3.org/1999/xlink"><g><path d="M49.9955254,9.4399719l-0.0199585-1.0199585l-1.0100098,0.039978   c-8.1300049,0.289978-22.4100361-6.2800293-22.5500507-6.3499756l-0.4199829-0.1900024l-0.4199829,0.1900024   c-0.1400146,0.0699463-14.4100342,6.6399536-22.539978,6.3499756l-1.0100098-0.039978L2.0055332,9.4299622   C1.9955235,9.7499695,1.475565,41.4999695,25.5655308,49.9599915l0.3300171,0.1199951l0.3300171-0.1199951   C50.3255424,41.4999695,50.0055351,9.7599792,49.9955254,9.4399719z M19.3903599,33.8100281l-0.9814453,0.7612305   L12.0969028,21.316864l1.8056641-0.8603516l5.2456055,11.0161133c3.3808594-2.5883789,14.4257832-10.9345703,19.4155293-13.3525391   l0.8720703,1.7998047C33.8171196,22.6425476,19.5339146,33.6987,19.3903599,33.8100281z" fill="#3A92CC"/></g></svg>